<svg width="26" height="20" viewBox="0 0 26 20" fill="none" xmlns="http://www.w3.org/2000/svg">
<path d="M23.7933 0.522041C21.4148 0.657023 16.6874 1.14834 13.769 2.9348C13.5676 3.05806 13.4534 3.27725 13.4534 3.50642V19.2994C13.4534 19.8007 14.0016 20.1175 14.4639 19.8849C17.4665 18.3736 21.8089 17.9613 23.956 17.8484C24.6891 17.8098 25.259 17.2221 25.259 16.5177V1.85451C25.2594 1.08584 24.5928 0.476902 23.7933 0.522041ZM11.7494 2.9348C8.83148 1.14834 4.10405 0.657458 1.72558 0.522041C0.926097 0.476902 0.25943 1.08584 0.25943 1.85451V16.5181C0.25943 17.223 0.829308 17.8107 1.56238 17.8489C3.71038 17.9617 8.055 18.3745 11.0576 19.8866C11.5185 20.1188 12.065 19.8024 12.065 19.3024V3.4986C12.065 3.269 11.9513 3.0585 11.7494 2.9348Z" fill="#19A7CE"/>
</svg>
